# xmcd CD database file
#
# Track frame offsets:
#	150
#	11680
#	29927
#	45615
#	65927
#	81187
#	101282
#	120850
#	136240
#	150480
#	171887
#	189345
#
# Disc length: 2861 seconds
#
# Revision: 0
# Processed by: cddbd v1.4PL0 Copyright (c) Steve Scherf et al.
# Submitted via: Feurio! 1.65 - http://www.feurio.com
#
DISCID=980b2b0c
DTITLE=Dr. Hector and The Groove Injectors - House Calls
DYEAR=1990
DGENRE=blues
TTITLE0=Risky Business
TTITLE1=Good Night For Making Love
TTITLE2=Two Strong People
TTITLE3=(Guilty Of A) Love Crime
TTITLE4=Shame, Shame, Shame
TTITLE5=Pickin' The Blues
TTITLE6=Brick By Brick
TTITLE7=I Wonder Where I'm Going To Sleep Tonight
TTITLE8=You Can Use My Shoulder
TTITLE9=That's How It Will Be (When You Fall In Love With Me)
TTITLE10=Wrong Side Of Love
TTITLE11=Infected With Love
EXTD=
EXTT0=
EXTT1=
EXTT2=
EXTT3=
EXTT4=
EXTT5=
EXTT6=
EXTT7=
EXTT8=
EXTT9=
EXTT10=
EXTT11=
PLAYORDER=
